<?xml version="1.0" standalone="no"?><svg xmlns="http://www.w3.org/2000/svg" viewBox="0 0 1440 320"><path fill="#6200EA" fill-opacity="1" d="M0,0L65.5,128L130.9,96L196.4,0L261.8,0L327.3,224L392.7,0L458.2,0L523.6,224L589.1,320L654.5,64L720,64L785.5,32L850.9,256L916.4,160L981.8,160L1047.3,192L1112.7,192L1178.2,32L1243.6,256L1309.1,96L1374.5,160L1440,32L1440,0L1374.5,0L1309.1,0L1243.6,0L1178.2,0L1112.7,0L1047.3,0L981.8,0L916.4,0L850.9,0L785.5,0L720,0L654.5,0L589.1,0L523.6,0L458.2,0L392.7,0L327.3,0L261.8,0L196.4,0L130.9,0L65.5,0L0,0Z"></path></svg>