<?xml version="1.0" standalone="no"?><svg xmlns="http://www.w3.org/2000/svg" viewBox="0 0 1440 320"><path fill="#E65100" fill-opacity="1" d="M0,256L65.5,128L130.9,192L196.4,256L261.8,96L327.3,288L392.7,64L458.2,192L523.6,256L589.1,192L654.5,256L720,160L785.5,224L850.9,160L916.4,32L981.8,288L1047.3,0L1112.7,192L1178.2,96L1243.6,128L1309.1,32L1374.5,288L1440,288L1440,0L1374.5,0L1309.1,0L1243.6,0L1178.2,0L1112.7,0L1047.3,0L981.8,0L916.4,0L850.9,0L785.5,0L720,0L654.5,0L589.1,0L523.6,0L458.2,0L392.7,0L327.3,0L261.8,0L196.4,0L130.9,0L65.5,0L0,0Z"></path></svg>