<?xml version="1.0" standalone="no"?><svg xmlns="http://www.w3.org/2000/svg" viewBox="0 0 1440 320"><path fill="#6200EA" fill-opacity="1" d="M0,224L65.5,192L130.9,224L196.4,192L261.8,256L327.3,32L392.7,96L458.2,32L523.6,96L589.1,192L654.5,192L720,224L785.5,32L850.9,256L916.4,32L981.8,256L1047.3,288L1112.7,96L1178.2,192L1243.6,96L1309.1,320L1374.5,192L1440,160L1440,320L1374.5,320L1309.1,320L1243.6,320L1178.2,320L1112.7,320L1047.3,320L981.8,320L916.4,320L850.9,320L785.5,320L720,320L654.5,320L589.1,320L523.6,320L458.2,320L392.7,320L327.3,320L261.8,320L196.4,320L130.9,320L65.5,320L0,320Z"></path></svg>