<?xml version="1.0" standalone="no"?><svg xmlns="http://www.w3.org/2000/svg" viewBox="0 0 1440 320"><path fill="#90A4AE" fill-opacity="1" d="M0,0L65.5,128L130.9,96L196.4,0L261.8,0L327.3,224L392.7,0L458.2,0L523.6,224L589.1,320L654.5,64L720,64L785.5,32L850.9,256L916.4,160L981.8,160L1047.3,192L1112.7,192L1178.2,32L1243.6,256L1309.1,96L1374.5,160L1440,32L1440,320L1374.5,320L1309.1,320L1243.6,320L1178.2,320L1112.7,320L1047.3,320L981.8,320L916.4,320L850.9,320L785.5,320L720,320L654.5,320L589.1,320L523.6,320L458.2,320L392.7,320L327.3,320L261.8,320L196.4,320L130.9,320L65.5,320L0,320Z"></path></svg>