<?xml version="1.0" standalone="no"?><svg xmlns="http://www.w3.org/2000/svg" viewBox="0 0 1440 320"><path fill="#E65100" fill-opacity="1" d="M0,256L65.5,128L130.9,192L196.4,256L261.8,96L327.3,288L392.7,64L458.2,192L523.6,256L589.1,192L654.5,256L720,160L785.5,224L850.9,160L916.4,32L981.8,288L1047.3,0L1112.7,192L1178.2,96L1243.6,128L1309.1,32L1374.5,288L1440,288L1440,320L1374.5,320L1309.1,320L1243.6,320L1178.2,320L1112.7,320L1047.3,320L981.8,320L916.4,320L850.9,320L785.5,320L720,320L654.5,320L589.1,320L523.6,320L458.2,320L392.7,320L327.3,320L261.8,320L196.4,320L130.9,320L65.5,320L0,320Z"></path></svg>